<svg width="8" height="15" viewBox="0 0 8 15" fill="none" xmlns="http://www.w3.org/2000/svg">
<path fill-rule="evenodd" clip-rule="evenodd" d="M2.66663 13.3333C2.66663 13.5986 2.59639 13.8529 2.47136 14.0405C2.34634 14.228 2.17677 14.3333 1.99996 14.3333H1.33329C1.15648 14.3333 0.986913 14.228 0.861888 14.0405C0.736864 13.8529 0.666626 13.5986 0.666626 13.3333V1.33334C0.666626 1.06813 0.736864 0.813773 0.861888 0.626237C0.986913 0.438701 1.15648 0.333344 1.33329 0.333344H1.99996C2.17677 0.333344 2.34634 0.438701 2.47136 0.626237C2.59639 0.813773 2.66663 1.06813 2.66663 1.33334V13.3333ZM7.33329 13.3333C7.33329 13.5986 7.26306 13.8529 7.13803 14.0405C7.01301 14.228 6.84344 14.3333 6.66663 14.3333H5.99996C5.82315 14.3333 5.65358 14.228 5.52856 14.0405C5.40353 13.8529 5.33329 13.5986 5.33329 13.3333V1.33334C5.33329 1.06813 5.40353 0.813773 5.52856 0.626237C5.65358 0.438701 5.82315 0.333344 5.99996 0.333344H6.66663C6.84344 0.333344 7.01301 0.438701 7.13803 0.626237C7.26306 0.813773 7.33329 1.06813 7.33329 1.33334V13.3333Z" fill="#D91E18"/>
</svg>
